<svg xmlns="http://www.w3.org/2000/svg" xmlns:xlink="http://www.w3.org/1999/xlink"><symbol id="lucide-check" fill="none" stroke="currentColor"><path d="M20 6 9 17l-5-5"/></symbol><symbol id="lucide-eye" fill="none" stroke="currentColor"><path d="M2.062 12.348a1 1 0 0 1 0-.696 10.75 10.75 0 0 1 19.876 0 1 1 0 0 1 0 .696 10.75 10.75 0 0 1-19.876 0"/><circle cx="12" cy="12" r="3"/></symbol><symbol id="lucide-rotate-ccw" fill="none" stroke="currentColor"><path d="M3 12a9 9 0 1 0 9-9 9.75 9.75 0 0 0-6.74 2.74L3 8"/><path d="M3 3v5h5"/></symbol><symbol id="lucide-x" fill="none" stroke="currentColor"><path d="M18 6 6 18M6 6l12 12"/></symbol></svg>